<mxfile host="app.diagrams.net" modified="2023-06-19T12:51:17.893Z" agent="Mozilla/5.0 (X11; Linux x86_64) AppleWebKit/537.36 (KHTML, like Gecko) Chrome/114.0.0.0 Safari/537.36" version="21.5.0" etag="WTy0GEKcKBXa7aYPMNLA" type="github">
  <diagram name="Page-1" id="DMfqj76WYdlzirbmYl45">
    <mxGraphModel>
      <root>
        <mxCell id="0" />
        <mxCell id="1" parent="0" />
      </root>
    </mxGraphModel>
  </diagram>
</mxfile>
